<svg width="20" height="18" viewBox="0 0 20 18" fill="none" xmlns="http://www.w3.org/2000/svg">
<path fill-rule="evenodd" clip-rule="evenodd" d="M14.9136 2.49435C14.9136 2.76744 15.1421 2.98869 15.4242 2.98869C16.1262 2.98869 16.7649 3.26744 17.2278 3.71557C17.6913 4.16383 17.9786 4.78205 17.9786 5.46163V14.5382C17.9786 15.2183 17.6907 15.8366 17.2278 16.2847C16.7648 16.7334 16.1262 17.0116 15.4242 17.0116H3.57579C2.87378 17.0116 2.23509 16.7329 1.77219 16.2847C1.30874 15.836 1.02137 15.2178 1.02137 14.5382L1.02137 5.46163C1.02137 4.78201 1.3093 4.1637 1.77219 3.71557C2.23522 3.26689 2.87381 2.98869 3.57579 2.98869C3.85788 2.98869 4.08642 2.76744 4.08642 2.49435C4.08642 2.22125 3.85788 2 3.57579 2C2.5917 2 1.69769 2.38908 1.04979 3.01631C0.401895 3.64368 0 4.50957 0 5.46173L0 14.5383C0 15.491 0.401895 16.3565 1.04979 16.9837C1.69783 17.6109 2.59225 18 3.57579 18H15.4242C16.4083 18 17.3023 17.6109 17.9502 16.9837C18.5976 16.3563 19 15.4904 19 14.5383V5.46173C19 4.50903 18.5981 3.64354 17.9502 3.01631C17.3022 2.38908 16.4077 2 15.4242 2C15.1421 2 14.9136 2.22125 14.9136 2.49435ZM9.862 12.8315C9.77252 12.9349 9.64348 13 9.49943 13C9.35539 13 9.22634 12.935 9.1383 12.8315L5.15808 9.02864C4.95998 8.83973 4.94615 8.51832 5.12744 8.3114C5.30817 8.10434 5.61568 8.08988 5.81365 8.27937L9.01189 11.3352L9.01189 1.51034C9.01189 1.22841 9.23042 1 9.50015 1C9.76988 1 9.98841 1.22841 9.98841 1.51034L9.98841 11.3352L13.1867 8.27937C13.3846 8.09056 13.6916 8.10448 13.8729 8.3114C14.0535 8.5183 14.0402 8.83916 13.8422 9.02864L9.862 12.8315Z" fill="white"/>
<path d="M17.2278 3.71557L17.0539 3.89518L17.054 3.89526L17.2278 3.71557ZM17.2278 16.2847L17.0539 16.1051L17.0538 16.1052L17.2278 16.2847ZM1.77219 16.2847L1.59828 16.4643L1.5983 16.4644L1.77219 16.2847ZM1.77219 3.71557L1.94608 3.89518L1.94616 3.89511L1.77219 3.71557ZM1.04979 3.01631L0.875904 2.83669L0.875885 2.83671L1.04979 3.01631ZM1.04979 16.9837L0.875904 17.1633L0.875924 17.1633L1.04979 16.9837ZM17.9502 16.9837L18.1241 17.1633L18.1242 17.1632L17.9502 16.9837ZM17.9502 3.01631L18.1241 2.83669L18.1241 2.83667L17.9502 3.01631ZM9.862 12.8315L9.6893 12.6507L9.68072 12.6589L9.67296 12.6679L9.862 12.8315ZM9.1383 12.8315L9.32875 12.6695L9.32036 12.6596L9.311 12.6507L9.1383 12.8315ZM5.15808 9.02864L5.33078 8.84788L5.33061 8.84772L5.15808 9.02864ZM5.12744 8.3114L5.31548 8.47614L5.31578 8.4758L5.12744 8.3114ZM5.81365 8.27937L5.64078 8.45997L5.64094 8.46012L5.81365 8.27937ZM9.01189 11.3352L8.83919 11.5159L9.26189 11.9198V11.3352H9.01189ZM9.98841 11.3352H9.73841V11.9198L10.1611 11.5159L9.98841 11.3352ZM13.1867 8.27937L13.0141 8.09846L13.0139 8.09861L13.1867 8.27937ZM13.8729 8.3114L14.0612 8.14698L14.0609 8.14665L13.8729 8.3114ZM13.8422 9.02864L14.0149 9.2094L14.0151 9.20925L13.8422 9.02864ZM15.4242 2.73869C15.2725 2.73869 15.1636 2.62179 15.1636 2.49435H14.6636C14.6636 2.91309 15.0118 3.23869 15.4242 3.23869V2.73869ZM17.4017 3.53595C16.8937 3.04419 16.1933 2.73869 15.4242 2.73869V3.23869C16.0592 3.23869 16.6361 3.49069 17.0539 3.89518L17.4017 3.53595ZM18.2286 5.46163C18.2286 4.70976 17.9104 4.02798 17.4016 3.53587L17.054 3.89526C17.4721 4.29968 17.7286 4.85434 17.7286 5.46163H18.2286ZM18.2286 14.5382V5.46163H17.7286V14.5382L18.2286 14.5382ZM17.4017 16.4644C17.9098 15.9725 18.2286 15.2907 18.2286 14.5382L17.7286 14.5382C17.7286 15.1459 17.4716 15.7007 17.0539 16.1051L17.4017 16.4644ZM15.4242 17.2616C16.1931 17.2616 16.8936 16.9567 17.4018 16.4643L17.0538 16.1052C16.636 16.5101 16.0592 16.7616 15.4242 16.7616V17.2616ZM3.57579 17.2616H15.4242V16.7616H3.57579V17.2616ZM1.5983 16.4644C2.10627 16.9561 2.80673 17.2616 3.57579 17.2616V16.7616C2.94082 16.7616 2.36391 16.5096 1.94608 16.1051L1.5983 16.4644ZM0.771371 14.5382C0.771371 15.2901 1.08961 15.9718 1.59828 16.4643L1.9461 16.1051C1.52787 15.7002 1.27137 15.1454 1.27137 14.5382H0.771371ZM0.771371 5.46163L0.771371 14.5382H1.27137L1.27137 5.46163H0.771371ZM1.5983 3.53595C1.09024 4.02781 0.771371 4.70962 0.771371 5.46163H1.27137C1.27137 4.85441 1.52836 4.29958 1.94608 3.89518L1.5983 3.53595ZM3.57579 2.73869C2.80687 2.73869 2.10644 3.04358 1.59822 3.53603L1.94616 3.89511C2.36401 3.49021 2.94075 3.23869 3.57579 3.23869V2.73869ZM3.83642 2.49435C3.83642 2.62179 3.72751 2.73869 3.57579 2.73869V3.23869C3.98825 3.23869 4.33642 2.91309 4.33642 2.49435H3.83642ZM3.57579 2.25C3.72751 2.25 3.83642 2.3669 3.83642 2.49435H4.33642C4.33642 2.0756 3.98825 1.75 3.57579 1.75V2.25ZM1.22368 3.19593C1.82633 2.6125 2.65849 2.25 3.57579 2.25V1.75C2.52491 1.75 1.56906 2.16565 0.875904 2.83669L1.22368 3.19593ZM0.25 5.46173C0.25 4.5817 0.621161 3.77936 1.2237 3.19591L0.875885 2.83671C0.182628 3.508 -0.25 4.43744 -0.25 5.46173H0.25ZM0.25 14.5383L0.25 5.46173H-0.25L-0.25 14.5383H0.25ZM1.22368 16.8041C0.621155 16.2208 0.25 15.4188 0.25 14.5383H-0.25C-0.25 15.5631 0.182634 16.4922 0.875904 17.1633L1.22368 16.8041ZM3.57579 17.75C2.65904 17.75 1.82645 17.3875 1.22366 16.8041L0.875924 17.1633C1.56921 17.8344 2.52546 18.25 3.57579 18.25V17.75ZM15.4242 17.75H3.57579V18.25H15.4242V17.75ZM17.7763 16.8041C17.1737 17.3875 16.3415 17.75 15.4242 17.75V18.25C16.4751 18.25 17.4309 17.8344 18.1241 17.1633L17.7763 16.8041ZM18.75 14.5383C18.75 15.4182 18.3783 16.2206 17.7762 16.8042L18.1242 17.1632C18.8168 16.492 19.25 15.5626 19.25 14.5383H18.75ZM18.75 5.46173V14.5383H19.25V5.46173H18.75ZM17.7763 3.19593C18.3788 3.77924 18.75 4.58117 18.75 5.46173H19.25C19.25 4.4369 18.8174 3.50785 18.1241 2.83669L17.7763 3.19593ZM15.4242 2.25C16.341 2.25 17.1735 2.61251 17.7763 3.19595L18.1241 2.83667C17.4308 2.16564 16.4745 1.75 15.4242 1.75V2.25ZM15.1636 2.49435C15.1636 2.3669 15.2725 2.25 15.4242 2.25V1.75C15.0118 1.75 14.6636 2.0756 14.6636 2.49435H15.1636ZM9.49943 13.25C9.72145 13.25 9.91774 13.1491 10.051 12.9951L9.67296 12.6679C9.62731 12.7206 9.5655 12.75 9.49943 12.75V13.25ZM8.94785 12.9934C9.0806 13.1495 9.27786 13.25 9.49943 13.25V12.75C9.43291 12.75 9.37208 12.7205 9.32875 12.6695L8.94785 12.9934ZM4.98538 9.2094L8.9656 13.0122L9.311 12.6507L5.33078 8.84788L4.98538 9.2094ZM4.93939 8.14665C4.67044 8.45363 4.68982 8.92755 4.98555 9.20956L5.33061 8.84772C5.23015 8.75191 5.22185 8.58301 5.31548 8.47614L4.93939 8.14665ZM5.98651 8.09876C5.68488 7.81005 5.21298 7.83324 4.9391 8.147L5.31578 8.4758C5.40337 8.37545 5.54648 8.36971 5.64078 8.45997L5.98651 8.09876ZM9.1846 11.1544L5.98635 8.09861L5.64094 8.46012L8.83919 11.5159L9.1846 11.1544ZM8.76189 1.51034L8.76189 11.3352H9.26189L9.26189 1.51034H8.76189ZM9.50015 0.75C9.08204 0.75 8.76189 1.10088 8.76189 1.51034H9.26189C9.26189 1.35595 9.3788 1.25 9.50015 1.25V0.75ZM10.2384 1.51034C10.2384 1.10088 9.91826 0.75 9.50015 0.75V1.25C9.6215 1.25 9.73841 1.35595 9.73841 1.51034H10.2384ZM10.2384 11.3352L10.2384 1.51034H9.73841L9.73841 11.3352H10.2384ZM13.0139 8.09861L9.8157 11.1544L10.1611 11.5159L13.3594 8.46012L13.0139 8.09861ZM14.0609 8.14665C13.7864 7.83328 13.3155 7.81101 13.0141 8.09846L13.3592 8.46027C13.4537 8.3701 13.5968 8.37567 13.6848 8.47614L14.0609 8.14665ZM14.0151 9.20925C14.3104 8.92658 14.329 8.45369 14.0612 8.14698L13.6845 8.47582C13.778 8.58292 13.77 8.75173 13.6694 8.84804L14.0151 9.20925ZM10.0347 13.0122L14.0149 9.2094L13.6695 8.84788L9.6893 12.6507L10.0347 13.0122Z" fill="white"/>
</svg>
