<svg width="64" height="64" viewBox="0 0 64 64" fill="none" xmlns="http://www.w3.org/2000/svg">
<path d="M32 64C14.356 64 0 49.644 0 32C0 14.356 14.356 0 32 0C49.644 0 64 14.356 64 32C64 49.644 49.644 64 32 64Z" fill="#FE6971"/>
<path d="M49.1395 14.9304C48.5421 14.3356 47.7378 14 46.8954 14C46.053 14 45.2487 14.3279 44.6513 14.9304L31.3781 28.0786L18.4276 14.9686C17.2021 13.7484 15.1877 13.7331 13.947 14.9457C12.6985 16.1584 12.6832 18.1641 13.9087 19.4149L29.1033 34.7748C29.7007 35.3696 30.5049 35.7052 31.355 35.7052C32.1976 35.7052 32.9941 35.3773 33.5916 34.7824L49.1249 19.4072C50.3503 18.187 50.3656 16.1812 49.1478 14.9457L49.1395 14.9304Z" fill="white"/>
<path d="M49.1395 48.9994C48.5421 49.5942 47.7378 49.9298 46.8954 49.9298C46.053 49.9298 45.2487 49.6019 44.6513 48.9994L31.3781 35.8512L18.4276 48.9612C17.2021 50.1814 15.1877 50.1967 13.947 48.9841C12.6985 47.7715 12.6832 45.7657 13.9087 44.5149L29.1033 29.1551C29.7007 28.5602 30.5049 28.2246 31.355 28.2246C32.1976 28.2246 32.9941 28.5526 33.5916 29.1474L49.1249 44.5226C50.3503 45.7428 50.3656 47.7486 49.1478 48.9841L49.1395 48.9994Z" fill="white"/>
</svg>
