<svg width="64" height="64" viewBox="0 0 64 64" fill="none" xmlns="http://www.w3.org/2000/svg">
<path d="M32 64C14.356 64 0 49.644 0 32C0 14.356 14.356 0 32 0C49.644 0 64 14.356 64 32C64 49.644 49.644 64 32 64Z" fill="#55D27C"/>
<path d="M45.0982 22.9002C44.5082 22.3247 43.714 22 42.8821 22C42.0502 22 41.2558 22.3173 40.666 22.9002L27.558 35.6212L23.36 31.4965C22.1498 30.3159 20.1605 30.3011 18.9352 31.4744C17.7023 32.6476 17.6872 34.5882 18.8974 35.7983L25.3115 42.0998C25.9014 42.6753 26.6957 43 27.5352 43C28.3672 43 29.1538 42.6827 29.7439 42.1072L45.0838 27.2316C46.294 26.051 46.3091 24.1103 45.1065 22.915L45.0982 22.9002Z" fill="white"/>
</svg>
