<svg width="20" height="18" viewBox="0 0 20 18" fill="none" xmlns="http://www.w3.org/2000/svg">
<path fill-rule="evenodd" clip-rule="evenodd" d="M14.9136 2.49435C14.9136 2.76744 15.1421 2.98869 15.4242 2.98869C16.1262 2.98869 16.7649 3.26744 17.2278 3.71557C17.6913 4.16383 17.9786 4.78205 17.9786 5.46163V14.5382C17.9786 15.2183 17.6907 15.8366 17.2278 16.2847C16.7648 16.7334 16.1262 17.0116 15.4242 17.0116H3.57579C2.87378 17.0116 2.23509 16.7329 1.77219 16.2847C1.30874 15.836 1.02137 15.2178 1.02137 14.5382L1.02137 5.46163C1.02137 4.78201 1.3093 4.1637 1.77219 3.71557C2.23522 3.26689 2.87381 2.98869 3.57579 2.98869C3.85788 2.98869 4.08642 2.76744 4.08642 2.49435C4.08642 2.22125 3.85788 2 3.57579 2C2.5917 2 1.69769 2.38908 1.04979 3.01631C0.401895 3.64368 0 4.50957 0 5.46173L0 14.5383C0 15.491 0.401895 16.3565 1.04979 16.9837C1.69783 17.6109 2.59225 18 3.57579 18H15.4242C16.4083 18 17.3023 17.6109 17.9502 16.9837C18.5976 16.3563 19 15.4904 19 14.5383V5.46173C19 4.50903 18.5981 3.64354 17.9502 3.01631C17.3022 2.38908 16.4077 2 15.4242 2C15.1421 2 14.9136 2.22125 14.9136 2.49435ZM9.862 1.16854C9.77252 1.06514 9.64348 1 9.49943 1C9.35539 1 9.22634 1.06501 9.1383 1.16854L5.15808 4.97136C4.95998 5.16027 4.94615 5.48168 5.12744 5.6886C5.30817 5.89566 5.61568 5.91012 5.81365 5.72063L9.01189 2.66481L9.01189 12.4897C9.01189 12.7716 9.23042 13 9.50015 13C9.76988 13 9.98841 12.7716 9.98841 12.4897L9.98841 2.66481L13.1867 5.72063C13.3846 5.90944 13.6916 5.89552 13.8729 5.6886C14.0535 5.4817 14.0402 5.16084 13.8422 4.97136L9.862 1.16854Z" fill="white"/>
<path d="M17.2278 3.71557L17.0539 3.89518L17.054 3.89526L17.2278 3.71557ZM17.2278 16.2847L17.0539 16.1051L17.0538 16.1052L17.2278 16.2847ZM1.77219 16.2847L1.59828 16.4643L1.5983 16.4644L1.77219 16.2847ZM1.77219 3.71557L1.94608 3.89518L1.94616 3.89511L1.77219 3.71557ZM1.04979 3.01631L0.875904 2.83669L0.875885 2.83671L1.04979 3.01631ZM1.04979 16.9837L0.875904 17.1633L0.875924 17.1633L1.04979 16.9837ZM17.9502 16.9837L18.1241 17.1633L18.1242 17.1632L17.9502 16.9837ZM17.9502 3.01631L18.1241 2.83669L18.1241 2.83667L17.9502 3.01631ZM9.862 1.16854L9.67296 1.33213L9.68072 1.3411L9.6893 1.3493L9.862 1.16854ZM9.1383 1.16854L9.311 1.3493L9.32036 1.34035L9.32875 1.33049L9.1383 1.16854ZM5.15808 4.97136L5.33061 5.15228L5.33078 5.15212L5.15808 4.97136ZM5.12744 5.6886L5.31578 5.5242L5.31548 5.52386L5.12744 5.6886ZM5.81365 5.72063L5.64094 5.53988L5.64078 5.54003L5.81365 5.72063ZM9.01189 2.66481H9.26189V2.08018L8.83919 2.48406L9.01189 2.66481ZM9.98841 2.66481L10.1611 2.48406L9.73841 2.08018V2.66481H9.98841ZM13.1867 5.72063L13.0139 5.90139L13.0141 5.90154L13.1867 5.72063ZM13.8729 5.6886L14.0609 5.85335L14.0612 5.85302L13.8729 5.6886ZM13.8422 4.97136L14.0151 4.79075L14.0149 4.7906L13.8422 4.97136ZM15.4242 2.73869C15.2725 2.73869 15.1636 2.62179 15.1636 2.49435H14.6636C14.6636 2.91309 15.0118 3.23869 15.4242 3.23869V2.73869ZM17.4017 3.53595C16.8937 3.04419 16.1933 2.73869 15.4242 2.73869V3.23869C16.0592 3.23869 16.6361 3.49069 17.0539 3.89518L17.4017 3.53595ZM18.2286 5.46163C18.2286 4.70976 17.9104 4.02798 17.4016 3.53587L17.054 3.89526C17.4721 4.29968 17.7286 4.85434 17.7286 5.46163H18.2286ZM18.2286 14.5382V5.46163H17.7286V14.5382L18.2286 14.5382ZM17.4017 16.4644C17.9098 15.9725 18.2286 15.2907 18.2286 14.5382L17.7286 14.5382C17.7286 15.1459 17.4716 15.7007 17.0539 16.1051L17.4017 16.4644ZM15.4242 17.2616C16.1931 17.2616 16.8936 16.9567 17.4018 16.4643L17.0538 16.1052C16.636 16.5101 16.0592 16.7616 15.4242 16.7616V17.2616ZM3.57579 17.2616H15.4242V16.7616H3.57579V17.2616ZM1.5983 16.4644C2.10627 16.9561 2.80673 17.2616 3.57579 17.2616V16.7616C2.94082 16.7616 2.36391 16.5096 1.94608 16.1051L1.5983 16.4644ZM0.771371 14.5382C0.771371 15.2901 1.08961 15.9718 1.59828 16.4643L1.9461 16.1051C1.52787 15.7002 1.27137 15.1454 1.27137 14.5382H0.771371ZM0.771371 5.46163L0.771371 14.5382H1.27137L1.27137 5.46163H0.771371ZM1.5983 3.53595C1.09024 4.02781 0.771371 4.70962 0.771371 5.46163H1.27137C1.27137 4.85441 1.52836 4.29958 1.94608 3.89518L1.5983 3.53595ZM3.57579 2.73869C2.80687 2.73869 2.10644 3.04358 1.59822 3.53603L1.94616 3.89511C2.36401 3.49021 2.94075 3.23869 3.57579 3.23869V2.73869ZM3.83642 2.49435C3.83642 2.62179 3.72751 2.73869 3.57579 2.73869V3.23869C3.98825 3.23869 4.33642 2.91309 4.33642 2.49435H3.83642ZM3.57579 2.25C3.72751 2.25 3.83642 2.3669 3.83642 2.49435H4.33642C4.33642 2.0756 3.98825 1.75 3.57579 1.75V2.25ZM1.22368 3.19593C1.82633 2.6125 2.65849 2.25 3.57579 2.25V1.75C2.52491 1.75 1.56906 2.16565 0.875904 2.83669L1.22368 3.19593ZM0.25 5.46173C0.25 4.5817 0.621161 3.77936 1.2237 3.19591L0.875885 2.83671C0.182628 3.508 -0.25 4.43744 -0.25 5.46173H0.25ZM0.25 14.5383L0.25 5.46173H-0.25L-0.25 14.5383H0.25ZM1.22368 16.8041C0.621155 16.2208 0.25 15.4188 0.25 14.5383H-0.25C-0.25 15.5631 0.182634 16.4922 0.875904 17.1633L1.22368 16.8041ZM3.57579 17.75C2.65904 17.75 1.82645 17.3875 1.22366 16.8041L0.875924 17.1633C1.56921 17.8344 2.52546 18.25 3.57579 18.25V17.75ZM15.4242 17.75H3.57579V18.25H15.4242V17.75ZM17.7763 16.8041C17.1737 17.3875 16.3415 17.75 15.4242 17.75V18.25C16.4751 18.25 17.4309 17.8344 18.1241 17.1633L17.7763 16.8041ZM18.75 14.5383C18.75 15.4182 18.3783 16.2206 17.7762 16.8042L18.1242 17.1632C18.8168 16.492 19.25 15.5626 19.25 14.5383H18.75ZM18.75 5.46173V14.5383H19.25V5.46173H18.75ZM17.7763 3.19593C18.3788 3.77924 18.75 4.58117 18.75 5.46173H19.25C19.25 4.4369 18.8174 3.50785 18.1241 2.83669L17.7763 3.19593ZM15.4242 2.25C16.341 2.25 17.1735 2.61251 17.7763 3.19595L18.1241 2.83667C17.4308 2.16564 16.4745 1.75 15.4242 1.75V2.25ZM15.1636 2.49435C15.1636 2.3669 15.2725 2.25 15.4242 2.25V1.75C15.0118 1.75 14.6636 2.0756 14.6636 2.49435H15.1636ZM9.49943 1.25C9.5655 1.25 9.62731 1.27939 9.67296 1.33213L10.051 1.00494C9.91774 0.850901 9.72145 0.75 9.49943 0.75V1.25ZM9.32875 1.33049C9.37208 1.27954 9.43291 1.25 9.49943 1.25V0.75C9.27786 0.75 9.0806 0.850479 8.94785 1.00658L9.32875 1.33049ZM5.33078 5.15212L9.311 1.3493L8.9656 0.987778L4.98538 4.7906L5.33078 5.15212ZM5.31548 5.52386C5.22185 5.41699 5.23015 5.24809 5.33061 5.15228L4.98555 4.79044C4.68982 5.07245 4.67044 5.54637 4.93939 5.85335L5.31548 5.52386ZM5.64078 5.54003C5.54648 5.63029 5.40337 5.62455 5.31578 5.5242L4.9391 5.853C5.21298 6.16676 5.68488 6.18995 5.98651 5.90124L5.64078 5.54003ZM8.83919 2.48406L5.64094 5.53988L5.98635 5.90139L9.1846 2.84557L8.83919 2.48406ZM9.26189 12.4897L9.26189 2.66481H8.76189L8.76189 12.4897H9.26189ZM9.50015 12.75C9.3788 12.75 9.26189 12.6441 9.26189 12.4897H8.76189C8.76189 12.8991 9.08204 13.25 9.50015 13.25V12.75ZM9.73841 12.4897C9.73841 12.6441 9.6215 12.75 9.50015 12.75V13.25C9.91826 13.25 10.2384 12.8991 10.2384 12.4897H9.73841ZM9.73841 2.66481L9.73841 12.4897H10.2384L10.2384 2.66481H9.73841ZM13.3594 5.53988L10.1611 2.48406L9.8157 2.84557L13.0139 5.90139L13.3594 5.53988ZM13.6848 5.52386C13.5968 5.62433 13.4537 5.6299 13.3592 5.53973L13.0141 5.90154C13.3155 6.18899 13.7864 6.16672 14.0609 5.85335L13.6848 5.52386ZM13.6694 5.15196C13.77 5.24827 13.778 5.41708 13.6845 5.52418L14.0612 5.85302C14.329 5.54631 14.3104 5.07342 14.0151 4.79075L13.6694 5.15196ZM9.6893 1.3493L13.6695 5.15212L14.0149 4.7906L10.0347 0.987778L9.6893 1.3493Z" fill="white"/>
</svg>
