<svg width="184" height="30" viewBox="0 0 184 30" fill="none" xmlns="http://www.w3.org/2000/svg">
<g clip-path="url(#clip0_0_1846)">
<path d="M4.912 21.096C4.08 21.096 3.28 20.9627 2.512 20.696C1.75467 20.4293 1.168 20.0773 0.752 19.64L1.216 18.728C1.62133 19.1333 2.16 19.464 2.832 19.72C3.504 19.9653 4.19733 20.088 4.912 20.088C5.91467 20.088 6.66667 19.9067 7.168 19.544C7.66933 19.1707 7.92 18.6907 7.92 18.104C7.92 17.656 7.78133 17.2987 7.504 17.032C7.23733 16.7653 6.90667 16.5627 6.512 16.424C6.11733 16.2747 5.568 16.1147 4.864 15.944C4.02133 15.7307 3.34933 15.528 2.848 15.336C2.34667 15.1333 1.91467 14.8293 1.552 14.424C1.2 14.0187 1.024 13.4693 1.024 12.776C1.024 12.2107 1.17333 11.6987 1.472 11.24C1.77067 10.7707 2.22933 10.3973 2.848 10.12C3.46667 9.84267 4.23467 9.704 5.152 9.704C5.792 9.704 6.416 9.79467 7.024 9.976C7.64267 10.1467 8.176 10.3867 8.624 10.696L8.224 11.64C7.75467 11.3307 7.25333 11.1013 6.72 10.952C6.18667 10.792 5.664 10.712 5.152 10.712C4.17067 10.712 3.42933 10.904 2.928 11.288C2.43733 11.6613 2.192 12.1467 2.192 12.744C2.192 13.192 2.32533 13.5547 2.592 13.832C2.86933 14.0987 3.21067 14.3067 3.616 14.456C4.032 14.5947 4.58667 14.7493 5.28 14.92C6.10133 15.1227 6.76267 15.3253 7.264 15.528C7.776 15.72 8.208 16.0187 8.56 16.424C8.912 16.8187 9.088 17.3573 9.088 18.04C9.088 18.6053 8.93333 19.1227 8.624 19.592C8.32533 20.0507 7.86133 20.4187 7.232 20.696C6.60267 20.9627 5.82933 21.096 4.912 21.096ZM18.7558 17.144H11.7158C11.7798 18.0187 12.1158 18.728 12.7238 19.272C13.3318 19.8053 14.0998 20.072 15.0278 20.072C15.5504 20.072 16.0304 19.9813 16.4678 19.8C16.9051 19.608 17.2838 19.3307 17.6038 18.968L18.2438 19.704C17.8704 20.152 17.4011 20.4933 16.8358 20.728C16.2811 20.9627 15.6678 21.08 14.9958 21.08C14.1318 21.08 13.3638 20.8987 12.6918 20.536C12.0304 20.1627 11.5131 19.6507 11.1398 19C10.7664 18.3493 10.5798 17.6133 10.5798 16.792C10.5798 15.9707 10.7558 15.2347 11.1078 14.584C11.4704 13.9333 11.9611 13.4267 12.5798 13.064C13.2091 12.7013 13.9131 12.52 14.6918 12.52C15.4704 12.52 16.1691 12.7013 16.7878 13.064C17.4064 13.4267 17.8918 13.9333 18.2438 14.584C18.5958 15.224 18.7718 15.96 18.7718 16.792L18.7558 17.144ZM14.6918 13.496C13.8811 13.496 13.1984 13.7573 12.6438 14.28C12.0998 14.792 11.7904 15.464 11.7158 16.296H17.6838C17.6091 15.464 17.2944 14.792 16.7398 14.28C16.1958 13.7573 15.5131 13.496 14.6918 13.496ZM24.572 21.08C23.74 21.08 22.9933 20.8987 22.332 20.536C21.6813 20.1733 21.1693 19.6667 20.796 19.016C20.4227 18.3547 20.236 17.6133 20.236 16.792C20.236 15.9707 20.4227 15.2347 20.796 14.584C21.1693 13.9333 21.6813 13.4267 22.332 13.064C22.9933 12.7013 23.74 12.52 24.572 12.52C25.2973 12.52 25.9427 12.664 26.508 12.952C27.084 13.2293 27.5373 13.64 27.868 14.184L27.02 14.76C26.7427 14.344 26.3907 14.0347 25.964 13.832C25.5373 13.6187 25.0733 13.512 24.572 13.512C23.964 13.512 23.4147 13.6507 22.924 13.928C22.444 14.1947 22.0653 14.5787 21.788 15.08C21.5213 15.5813 21.388 16.152 21.388 16.792C21.388 17.4427 21.5213 18.0187 21.788 18.52C22.0653 19.0107 22.444 19.3947 22.924 19.672C23.4147 19.9387 23.964 20.072 24.572 20.072C25.0733 20.072 25.5373 19.9707 25.964 19.768C26.3907 19.5653 26.7427 19.256 27.02 18.84L27.868 19.416C27.5373 19.96 27.084 20.376 26.508 20.664C25.932 20.9413 25.2867 21.08 24.572 21.08ZM37.6836 12.584V21H36.5956V19.464C36.297 19.976 35.8863 20.376 35.3636 20.664C34.841 20.9413 34.2436 21.08 33.5716 21.08C32.473 21.08 31.6036 20.776 30.9636 20.168C30.3343 19.5493 30.0196 18.648 30.0196 17.464V12.584H31.1556V17.352C31.1556 18.2373 31.3743 18.9093 31.8116 19.368C32.249 19.8267 32.873 20.056 33.6836 20.056C34.569 20.056 35.2676 19.7893 35.7796 19.256C36.2916 18.712 36.5476 17.96 36.5476 17V12.584H37.6836ZM41.9533 14.232C42.2199 13.6667 42.6146 13.24 43.1373 12.952C43.6706 12.664 44.3266 12.52 45.1053 12.52V13.624L44.8333 13.608C43.9479 13.608 43.2546 13.88 42.7533 14.424C42.2519 14.968 42.0013 15.7307 42.0013 16.712V21H40.8653V12.584H41.9533V14.232ZM54.412 17.144H47.372C47.436 18.0187 47.772 18.728 48.38 19.272C48.988 19.8053 49.756 20.072 50.684 20.072C51.2067 20.072 51.6867 19.9813 52.124 19.8C52.5613 19.608 52.94 19.3307 53.26 18.968L53.9 19.704C53.5267 20.152 53.0573 20.4933 52.492 20.728C51.9373 20.9627 51.324 21.08 50.652 21.08C49.788 21.08 49.02 20.8987 48.348 20.536C47.6867 20.1627 47.1693 19.6507 46.796 19C46.4227 18.3493 46.236 17.6133 46.236 16.792C46.236 15.9707 46.412 15.2347 46.764 14.584C47.1267 13.9333 47.6173 13.4267 48.236 13.064C48.8653 12.7013 49.5693 12.52 50.348 12.52C51.1267 12.52 51.8253 12.7013 52.444 13.064C53.0627 13.4267 53.548 13.9333 53.9 14.584C54.252 15.224 54.428 15.96 54.428 16.792L54.412 17.144ZM50.348 13.496C49.5373 13.496 48.8547 13.7573 48.3 14.28C47.756 14.792 47.4467 15.464 47.372 16.296H53.34C53.2653 15.464 52.9507 14.792 52.396 14.28C51.852 13.7573 51.1693 13.496 50.348 13.496ZM64.4203 9.128V21H63.3323V19.336C62.9909 19.9013 62.5376 20.3333 61.9723 20.632C61.4176 20.9307 60.7883 21.08 60.0843 21.08C59.2949 21.08 58.5803 20.8987 57.9403 20.536C57.3003 20.1733 56.7989 19.6667 56.4363 19.016C56.0736 18.3653 55.8923 17.624 55.8923 16.792C55.8923 15.96 56.0736 15.2187 56.4363 14.568C56.7989 13.9173 57.3003 13.416 57.9403 13.064C58.5803 12.7013 59.2949 12.52 60.0843 12.52C60.7669 12.52 61.3803 12.664 61.9243 12.952C62.4789 13.2293 62.9323 13.64 63.2843 14.184V9.128H64.4203ZM60.1803 20.072C60.7669 20.072 61.2949 19.9387 61.7643 19.672C62.2443 19.3947 62.6176 19.0053 62.8843 18.504C63.1616 18.0027 63.3003 17.432 63.3003 16.792C63.3003 16.152 63.1616 15.5813 62.8843 15.08C62.6176 14.5787 62.2443 14.1947 61.7643 13.928C61.2949 13.6507 60.7669 13.512 60.1803 13.512C59.5829 13.512 59.0443 13.6507 58.5643 13.928C58.0949 14.1947 57.7216 14.5787 57.4443 15.08C57.1776 15.5813 57.0443 16.152 57.0443 16.792C57.0443 17.432 57.1776 18.0027 57.4443 18.504C57.7216 19.0053 58.0949 19.3947 58.5643 19.672C59.0443 19.9387 59.5829 20.072 60.1803 20.072ZM76.1075 12.52C76.8968 12.52 77.6115 12.7013 78.2515 13.064C78.8915 13.416 79.3928 13.9173 79.7555 14.568C80.1182 15.2187 80.2995 15.96 80.2995 16.792C80.2995 17.624 80.1182 18.3653 79.7555 19.016C79.3928 19.6667 78.8915 20.1733 78.2515 20.536C77.6115 20.8987 76.8968 21.08 76.1075 21.08C75.4035 21.08 74.7688 20.9307 74.2035 20.632C73.6488 20.3333 73.2008 19.9013 72.8595 19.336V21H71.7715V9.128H72.9075V14.184C73.2595 13.64 73.7075 13.2293 74.2515 12.952C74.8062 12.664 75.4248 12.52 76.1075 12.52ZM76.0275 20.072C76.6142 20.072 77.1475 19.9387 77.6275 19.672C78.1075 19.3947 78.4808 19.0053 78.7475 18.504C79.0248 18.0027 79.1635 17.432 79.1635 16.792C79.1635 16.152 79.0248 15.5813 78.7475 15.08C78.4808 14.5787 78.1075 14.1947 77.6275 13.928C77.1475 13.6507 76.6142 13.512 76.0275 13.512C75.4302 13.512 74.8915 13.6507 74.4115 13.928C73.9422 14.1947 73.5688 14.5787 73.2915 15.08C73.0248 15.5813 72.8915 16.152 72.8915 16.792C72.8915 17.432 73.0248 18.0027 73.2915 18.504C73.5688 19.0053 73.9422 19.3947 74.4115 19.672C74.8915 19.9387 75.4302 20.072 76.0275 20.072ZM89.4529 12.584L85.2449 22.008C84.9035 22.7973 84.5089 23.3573 84.0609 23.688C83.6129 24.0187 83.0742 24.184 82.4449 24.184C82.0395 24.184 81.6609 24.12 81.3089 23.992C80.9569 23.864 80.6529 23.672 80.3969 23.416L80.9249 22.568C81.3515 22.9947 81.8635 23.208 82.4609 23.208C82.8449 23.208 83.1702 23.1013 83.4369 22.888C83.7142 22.6747 83.9702 22.312 84.2049 21.8L84.5729 20.984L80.8129 12.584H81.9969L85.1649 19.736L88.3329 12.584H89.4529Z" fill="#D9D9D9"/>
<path fill-rule="evenodd" clip-rule="evenodd" d="M171.394 10.4121C172.279 10.4121 172.997 9.71921 172.997 8.86454C172.997 8.00987 172.279 7.31702 171.394 7.31702C170.509 7.31702 169.791 8.00987 169.791 8.86454C169.791 9.71921 170.509 10.4121 171.394 10.4121ZM132.927 8.67103H136.232L139.724 16.7186H139.872L143.363 8.67103H146.669V20.6489H144.069V12.8528H143.964L140.683 20.5904H138.913L135.632 12.8235H135.527V20.6489H132.927V8.67103ZM151.692 20.8185C150.784 20.8185 150.031 20.5942 149.433 20.1459C148.834 19.6974 148.535 19.0288 148.535 18.1399C148.535 17.4692 148.702 16.9428 149.037 16.5607C149.371 16.1786 149.808 15.8998 150.349 15.7244C150.894 15.545 151.48 15.4281 152.107 15.3734C152.932 15.2955 153.522 15.2136 153.877 15.1279C154.232 15.042 154.41 14.8549 154.41 14.5664V14.5312C154.41 14.1609 154.286 13.8743 154.038 13.6715C153.795 13.4688 153.448 13.3674 152.998 13.3674C152.524 13.3674 152.146 13.4649 151.865 13.6598C151.585 13.8548 151.399 14.1024 151.308 14.4026L148.869 14.2154C149.051 13.3966 149.501 12.7475 150.219 12.2679C150.941 11.7883 151.872 11.5485 153.011 11.5485C153.716 11.5485 154.377 11.6538 154.991 11.8644C155.606 12.0749 156.101 12.4043 156.477 12.8528C156.857 13.2973 157.046 13.8762 157.046 14.5897V20.6489H154.546V19.403H154.471C154.24 19.8203 153.894 20.1614 153.431 20.4266C152.973 20.6878 152.394 20.8185 151.692 20.8185ZM152.447 19.099C153.025 19.099 153.5 18.9411 153.871 18.6253C154.242 18.3055 154.428 17.9098 154.428 17.438V16.4847C154.325 16.5509 154.164 16.6095 153.945 16.6601C153.731 16.7108 153.5 16.7557 153.252 16.7947C153.009 16.8297 152.79 16.8609 152.596 16.8882C152.134 16.9506 151.76 17.0734 151.475 17.2567C151.195 17.4399 151.055 17.707 151.055 18.058C151.055 18.401 151.185 18.6603 151.444 18.8358C151.709 19.0112 152.043 19.099 152.447 19.099ZM160.361 23.4328C161.092 23.9084 162.097 24.1463 163.376 24.1463C164.284 24.1463 165.086 24.0175 165.784 23.7602C166.481 23.5029 167.028 23.1208 167.424 22.6139C167.825 22.1071 168.025 21.4813 168.025 20.7366V11.6655H165.406V13.1744H165.307C165.192 12.9287 165.022 12.6811 164.8 12.4317C164.577 12.1821 164.286 11.9735 163.927 11.8059C163.568 11.6343 163.122 11.5485 162.59 11.5485C161.896 11.5485 161.257 11.7201 160.671 12.0632C160.089 12.4024 159.621 12.9112 159.266 13.5897C158.915 14.2681 158.739 15.1181 158.739 16.1396C158.739 17.1339 158.911 17.9546 159.253 18.6018C159.6 19.2491 160.064 19.7306 160.646 20.0464C161.232 20.3622 161.882 20.5202 162.596 20.5202C163.355 20.5202 163.954 20.37 164.391 20.0698C164.828 19.7657 165.134 19.4285 165.307 19.058H165.419V20.7015C165.419 21.2902 165.231 21.7132 164.855 21.9706C164.484 22.228 164.011 22.3566 163.438 22.3566C162.856 22.3566 162.408 22.2552 162.094 22.0525C161.785 21.8536 161.577 21.6333 161.469 21.3916L159.03 21.7016C159.187 22.38 159.631 22.957 160.361 23.4328ZM164.905 17.9819C164.558 18.4264 164.067 18.6487 163.432 18.6487C162.784 18.6487 162.289 18.4225 161.946 17.9702C161.603 17.5179 161.432 16.9038 161.432 16.1279C161.432 15.3637 161.601 14.7398 161.94 14.2564C162.282 13.7729 162.78 13.5312 163.432 13.5312C164.071 13.5312 164.564 13.7671 164.911 14.2388C165.258 14.7106 165.431 15.3403 165.431 16.1279C165.431 16.9195 165.256 17.5374 164.905 17.9819ZM170.123 20.6489V11.6655H172.76V20.6489H170.123ZM176.655 20.2394C177.357 20.6294 178.194 20.8243 179.168 20.8243C180.014 20.8243 180.747 20.68 181.366 20.3915C181.985 20.0991 182.47 19.6916 182.82 19.1691C183.175 18.6467 183.373 18.0423 183.415 17.3561H180.926C180.848 17.8357 180.654 18.2061 180.344 18.4673C180.035 18.7246 179.653 18.8533 179.199 18.8533C178.584 18.8533 178.091 18.6194 177.72 18.1515C177.353 17.6798 177.169 17.0149 177.169 16.1571C177.169 15.3072 177.355 14.6502 177.726 14.1862C178.097 13.7222 178.588 13.4902 179.199 13.4902C179.682 13.4902 180.072 13.6286 180.369 13.9055C180.67 14.1784 180.856 14.5391 180.926 14.9875H183.415C183.378 14.2934 183.177 13.689 182.814 13.1744C182.455 12.6597 181.962 12.26 181.335 11.9755C180.712 11.6908 179.985 11.5485 179.156 11.5485C178.194 11.5485 177.365 11.7454 176.667 12.1392C175.97 12.5291 175.432 13.073 175.052 13.7709C174.676 14.465 174.489 15.272 174.489 16.1922C174.489 17.1007 174.674 17.9039 175.046 18.6018C175.421 19.2998 175.958 19.8456 176.655 20.2394Z" fill="#D9D9D9"/>
<path fill-rule="evenodd" clip-rule="evenodd" d="M112.439 0C113.737 1.59004 115.169 3.06666 116.717 4.41275C115.685 7.75929 115.13 11.3147 115.13 14.9999C115.13 18.6851 115.685 22.2406 116.717 25.5871C115.169 26.9332 113.737 28.4099 112.439 30C111.141 28.4098 109.709 26.9331 108.161 25.587C109.193 22.2405 109.748 18.6851 109.748 14.9999C109.748 11.3148 109.193 7.75948 108.161 4.413C109.709 3.06685 111.141 1.59013 112.439 0ZM105.202 23.2735C103.563 22.1246 101.824 21.1093 100 20.2433C100.506 18.5847 100.778 16.8241 100.778 15C100.778 13.1758 100.506 11.4153 100 9.75668C101.824 8.89072 103.563 7.87539 105.202 6.72649C105.829 9.38251 106.16 12.1525 106.16 14.9999C106.16 17.8474 105.829 20.6174 105.202 23.2735ZM118.718 14.9999C118.718 17.8474 119.05 20.6173 119.676 23.2733C121.315 22.1245 123.054 21.1092 124.878 20.2433C124.372 18.5847 124.1 16.8241 124.1 15C124.1 13.1758 124.372 11.4152 124.878 9.75659C123.054 8.89066 121.315 7.87538 119.676 6.72654C119.05 9.38254 118.718 12.1525 118.718 14.9999Z" fill="#D9D9D9"/>
</g>
<defs>
<clipPath id="clip0_0_1846">
<rect width="183.415" height="30" fill="white"/>
</clipPath>
</defs>
</svg>
