<svg width="77" height="50" viewBox="0 0 77 50" fill="none" xmlns="http://www.w3.org/2000/svg">
<path d="M0 0H67C72.5229 0 77 4.47715 77 10V40C77 45.5228 72.5229 50 67 50H0V0Z" fill="#55D27C"/>
<path d="M46.4847 19.5144C46.1476 19.1855 45.6937 19 45.2183 19C44.7429 19 44.2891 19.1813 43.952 19.5144L36.4617 26.7835L34.0628 24.4266C33.3713 23.7519 32.2346 23.7435 31.5344 24.4139C30.8299 25.0843 30.8212 26.1932 31.5128 26.8848L35.178 30.4856C35.5151 30.8145 35.969 31 36.4487 31C36.9241 31 37.3736 30.8187 37.7108 30.4898L46.4764 21.9895C47.168 21.3148 47.1766 20.2059 46.4894 19.5229L46.4847 19.5144Z" fill="white"/>
</svg>
