<svg width="50" height="50" viewBox="0 0 50 50" fill="none" xmlns="http://www.w3.org/2000/svg">
<g filter="url(#filter0_d_0_846)">
<rect width="40" height="40" rx="20" transform="matrix(-1 0 0 1 45 5)" fill="white"/>
</g>
<path fill-rule="evenodd" clip-rule="evenodd" d="M22.7162 15.341C22.3599 14.9429 21.905 14.75 21.5304 14.75C21.2145 14.75 20.9966 14.8602 20.8487 15.0438L20.8365 15.0589L20.8235 15.0735C20.3858 15.5624 20.3635 16.6547 21.0629 17.4361C21.4122 17.8262 22.0401 18.292 22.7465 18.6621C23.237 18.919 23.7066 19.0989 24.0936 19.1874V19.164L24.0965 19.1306C24.1177 18.8942 24.1622 18.6314 24.2261 18.3534C24.1335 18.0241 24.0091 17.6614 23.8562 17.2912C23.5397 16.5251 23.1341 15.8077 22.7162 15.341ZM25.0001 16.1721C24.6811 15.5018 24.2855 14.845 23.8339 14.3405C23.2324 13.6686 22.3873 13.25 21.5304 13.25C20.8263 13.25 20.1604 13.5172 19.693 14.0874C18.6402 15.2814 18.8702 17.2355 19.9453 18.4365C20.4513 19.0018 21.243 19.5678 22.0504 19.9908C22.8447 20.4069 23.7781 20.75 24.575 20.75C24.7409 20.75 24.8817 20.7313 25.0001 20.704C25.1184 20.7313 25.2592 20.75 25.4251 20.75C26.222 20.75 27.1554 20.4069 27.9497 19.9908C28.7571 19.5678 29.5488 19.0018 30.0548 18.4365C31.1299 17.2355 31.3599 15.2814 30.3071 14.0874C29.8398 13.5172 29.1738 13.25 28.4697 13.25C27.6128 13.25 26.7677 13.6686 26.1662 14.3405C25.7146 14.845 25.319 15.5018 25.0001 16.1721ZM25.9066 19.1874V19.164L25.9036 19.1306C25.8824 18.8942 25.8379 18.6314 25.7741 18.3534C25.8666 18.0242 25.991 17.6614 26.1439 17.2912C26.4604 16.5251 26.8661 15.8077 27.2839 15.341C27.6402 14.9429 28.0951 14.75 28.4697 14.75C28.7856 14.75 29.0035 14.8602 29.1514 15.0438L29.1636 15.0589L29.1766 15.0735C29.6143 15.5624 29.6366 16.6547 28.9372 17.4361C28.5879 17.8262 27.96 18.292 27.2536 18.6621C26.7631 18.919 26.2935 19.0989 25.9066 19.1874Z" fill="white"/>
<path d="M22.7162 15.341L22.1574 15.8412V15.8412L22.7162 15.341ZM20.8487 15.0438L21.4328 15.5143L21.4328 15.5143L20.8487 15.0438ZM20.8365 15.0589L21.3953 15.5592L21.4083 15.5446L21.4205 15.5295L20.8365 15.0589ZM20.8235 15.0735L21.3823 15.5737L21.3823 15.5737L20.8235 15.0735ZM21.0629 17.4361L21.6218 16.9359H21.6218L21.0629 17.4361ZM22.7465 18.6621L22.3985 19.3264H22.3985L22.7465 18.6621ZM24.0936 19.1874L23.9264 19.9185L24.8436 20.1281V19.1874H24.0936ZM24.0936 19.164L23.3465 19.0971L23.3436 19.1304V19.164H24.0936ZM24.0965 19.1306L24.8436 19.1975V19.1975L24.0965 19.1306ZM24.2261 18.3534L24.957 18.5214L24.9999 18.3348L24.9481 18.1505L24.2261 18.3534ZM23.8562 17.2912L24.5493 17.0048V17.0048L23.8562 17.2912ZM25.0001 16.1721L24.3228 16.4943L25.0001 17.9176L25.6773 16.4943L25.0001 16.1721ZM23.8339 14.3405L24.3927 13.8403V13.8403L23.8339 14.3405ZM19.693 14.0874L20.2556 14.5835L20.2645 14.5733L20.2731 14.5628L19.693 14.0874ZM19.9453 18.4365L20.5041 17.9363L19.9453 18.4365ZM22.0504 19.9908L22.3985 19.3264V19.3264L22.0504 19.9908ZM25.0001 20.704L25.1688 19.9732L25.0001 19.9342L24.8313 19.9732L25.0001 20.704ZM27.9497 19.9908L27.6017 19.3264L27.6017 19.3264L27.9497 19.9908ZM30.0548 18.4365L29.496 17.9363L29.496 17.9363L30.0548 18.4365ZM30.3071 14.0874L29.727 14.5628L29.7356 14.5733L29.7446 14.5835L30.3071 14.0874ZM26.1662 14.3405L25.6074 13.8403V13.8403L26.1662 14.3405ZM25.9066 19.1874H25.1566V20.1281L26.0737 19.9185L25.9066 19.1874ZM25.9066 19.164H26.6566V19.1304L26.6536 19.0971L25.9066 19.164ZM25.9036 19.1306L25.1566 19.1975V19.1975L25.9036 19.1306ZM25.7741 18.3534L25.052 18.1505L25.0002 18.3348L25.0431 18.5214L25.7741 18.3534ZM26.1439 17.2912L25.4508 17.0048V17.0048L26.1439 17.2912ZM27.2839 15.341L27.8427 15.8412L27.8427 15.8412L27.2839 15.341ZM29.1514 15.0438L29.7355 14.5733L29.7355 14.5732L29.1514 15.0438ZM29.1636 15.0589L28.5796 15.5295L28.5918 15.5446L28.6048 15.5592L29.1636 15.0589ZM29.1766 15.0735L28.6178 15.5737L28.6178 15.5737L29.1766 15.0735ZM28.9372 17.4361L29.496 17.9363V17.9363L28.9372 17.4361ZM27.2536 18.6621L27.6017 19.3264H27.6017L27.2536 18.6621ZM21.5304 15.5C21.6647 15.5 21.9243 15.5808 22.1574 15.8412L23.2751 14.8408C22.7955 14.305 22.1453 14 21.5304 14V15.5ZM21.4328 15.5143C21.436 15.5102 21.437 15.5098 21.4356 15.5109C21.434 15.5122 21.4328 15.5127 21.4338 15.5122C21.4344 15.5119 21.4603 15.5 21.5304 15.5V14C21.0151 14 20.5713 14.1926 20.2647 14.5732L21.4328 15.5143ZM21.4205 15.5295L21.4328 15.5143L20.2647 14.5732L20.2524 14.5884L21.4205 15.5295ZM21.3823 15.5737L21.3953 15.5592L20.2777 14.5587L20.2647 14.5733L21.3823 15.5737ZM21.6218 16.9359C21.3915 16.6786 21.2826 16.3728 21.2653 16.0981C21.2469 15.8048 21.3338 15.6279 21.3823 15.5737L20.2647 14.5732C19.8755 15.008 19.7324 15.6217 19.7683 16.1922C19.8053 16.7812 20.035 17.4122 20.5041 17.9363L21.6218 16.9359ZM23.0945 17.9977C22.4387 17.6541 21.8926 17.2384 21.6218 16.9359L20.5041 17.9363C20.9317 18.414 21.6416 18.9299 22.3985 19.3264L23.0945 17.9977ZM24.2607 18.4562C23.952 18.3856 23.5437 18.233 23.0945 17.9977L22.3985 19.3264C22.9304 19.6051 23.4613 19.8122 23.9264 19.9185L24.2607 18.4562ZM24.8436 19.1874V19.164H23.3436V19.1874H24.8436ZM24.8406 19.2308L24.8436 19.1975L23.3495 19.0637L23.3465 19.0971L24.8406 19.2308ZM24.8436 19.1975C24.861 19.0027 24.8988 18.7746 24.957 18.5214L23.4951 18.1854C23.4255 18.4883 23.3744 18.7856 23.3495 19.0637L24.8436 19.1975ZM23.163 17.5775C23.3051 17.9215 23.4198 18.2564 23.504 18.5563L24.9481 18.1505C24.8473 17.7919 24.7132 17.4013 24.5493 17.0048L23.163 17.5775ZM22.1574 15.8412C22.497 16.2206 22.8636 16.8528 23.163 17.5775L24.5493 17.0048C24.2158 16.1975 23.7711 15.3949 23.2751 14.8408L22.1574 15.8412ZM25.6773 15.8498C25.3402 15.1414 24.9083 14.4164 24.3927 13.8403L23.2751 14.8408C23.6626 15.2737 24.022 15.8622 24.3228 16.4943L25.6773 15.8498ZM24.3927 13.8403C23.6689 13.0318 22.6289 12.5 21.5304 12.5V14C22.1457 14 22.7958 14.3054 23.2751 14.8408L24.3927 13.8403ZM21.5304 12.5C20.6318 12.5 19.7408 12.8459 19.1129 13.6121L20.2731 14.5628C20.5799 14.1885 21.0208 14 21.5304 14V12.5ZM19.1305 13.5914C17.7647 15.1402 18.1253 17.5278 19.3865 18.9367L20.5041 17.9363C19.6151 16.9431 19.5157 15.4225 20.2556 14.5835L19.1305 13.5914ZM19.3865 18.9367C19.9709 19.5896 20.8445 20.2057 21.7024 20.6552L22.3985 19.3264C21.6416 18.9299 20.9317 18.414 20.5041 17.9363L19.3865 18.9367ZM21.7024 20.6552C22.5343 21.091 23.5971 21.5 24.575 21.5V20C23.9591 20 23.1551 19.7228 22.3985 19.3264L21.7024 20.6552ZM24.575 21.5C24.798 21.5 24.9955 21.4748 25.1688 21.4348L24.8313 19.9732C24.7679 19.9879 24.6837 20 24.575 20V21.5ZM25.4251 20C25.3164 20 25.2322 19.9879 25.1688 19.9732L24.8313 21.4348C25.0047 21.4748 25.2021 21.5 25.4251 21.5V20ZM27.6017 19.3264C26.845 19.7228 26.041 20 25.4251 20V21.5C26.403 21.5 27.4658 21.091 28.2977 20.6552L27.6017 19.3264ZM29.496 17.9363C29.0684 18.414 28.3585 18.9299 27.6017 19.3264L28.2977 20.6552C29.1556 20.2057 30.0292 19.5896 30.6136 18.9367L29.496 17.9363ZM29.7446 14.5835C30.4845 15.4225 30.385 16.9431 29.496 17.9363L30.6136 18.9367C31.8748 17.5278 32.2354 15.1402 30.8696 13.5914L29.7446 14.5835ZM28.4697 14C28.9793 14 29.4202 14.1885 29.727 14.5628L30.8872 13.6121C30.2593 12.8459 29.3683 12.5 28.4697 12.5V14ZM26.7251 14.8408C27.2043 14.3054 27.8544 14 28.4697 14V12.5C27.3712 12.5 26.3312 13.0318 25.6074 13.8403L26.7251 14.8408ZM25.6773 16.4943C25.9781 15.8622 26.3375 15.2737 26.7251 14.8408L25.6074 13.8403C25.0918 14.4164 24.6599 15.1414 24.3228 15.8498L25.6773 16.4943ZM26.6566 19.1874V19.164H25.1566V19.1874H26.6566ZM26.6536 19.0971L26.6506 19.0637L25.1566 19.1975L25.1595 19.2308L26.6536 19.0971ZM26.6506 19.0637C26.6257 18.7856 26.5746 18.4883 26.505 18.1854L25.0431 18.5214C25.1013 18.7746 25.1391 19.0027 25.1566 19.1975L26.6506 19.0637ZM25.4508 17.0048C25.287 17.4013 25.1528 17.7919 25.052 18.1505L26.4961 18.5563C26.5804 18.2564 26.695 17.9215 26.8371 17.5775L25.4508 17.0048ZM26.7251 14.8408C26.229 15.3949 25.7843 16.1975 25.4508 17.0048L26.8371 17.5775C27.1365 16.8528 27.5031 16.2206 27.8427 15.8412L26.7251 14.8408ZM28.4697 14C27.8548 14 27.2046 14.305 26.7251 14.8408L27.8427 15.8412C28.0758 15.5808 28.3354 15.5 28.4697 15.5V14ZM29.7355 14.5732C29.4288 14.1926 28.985 14 28.4697 14V15.5C28.5398 15.5 28.5657 15.5119 28.5663 15.5122C28.5673 15.5127 28.5662 15.5122 28.5645 15.5109C28.5631 15.5098 28.5641 15.5102 28.5674 15.5143L29.7355 14.5732ZM29.7477 14.5884L29.7355 14.5733L28.5674 15.5143L28.5796 15.5295L29.7477 14.5884ZM29.7355 14.5733L29.7225 14.5587L28.6048 15.5592L28.6178 15.5737L29.7355 14.5733ZM29.496 17.9363C29.9651 17.4122 30.1948 16.7812 30.2318 16.1922C30.2677 15.6217 30.1246 15.008 29.7354 14.5732L28.6178 15.5737C28.6663 15.6279 28.7532 15.8048 28.7348 16.0981C28.7175 16.3728 28.6086 16.6786 28.3783 16.9359L29.496 17.9363ZM27.6017 19.3264C28.3585 18.9299 29.0684 18.414 29.496 17.9363L28.3783 16.9359C28.1075 17.2384 27.5615 17.6541 26.9056 17.9977L27.6017 19.3264ZM26.0737 19.9185C26.5388 19.8122 27.0698 19.6051 27.6017 19.3264L26.9056 17.9977C26.4565 18.233 26.0482 18.3856 25.7394 18.4562L26.0737 19.9185Z" fill="#7678B5"/>
<path d="M15.7976 25.75H34.2024V34C34.2024 34.6904 33.6427 35.25 32.9524 35.25H17.0476C16.3573 35.25 15.7976 34.6904 15.7976 34V25.75Z" fill="white" stroke="#7678B5" stroke-width="1.5"/>
<rect x="14.75" y="19.25" width="20.5" height="6.5" rx="1.25" fill="white" stroke="#7678B5" stroke-width="1.5"/>
<path d="M24.9999 18.7383V35.3361" stroke="#7678B5" stroke-width="1.5"/>
<defs>
<filter id="filter0_d_0_846" x="0" y="0" width="50" height="50" filterUnits="userSpaceOnUse" color-interpolation-filters="sRGB">
<feFlood flood-opacity="0" result="BackgroundImageFix"/>
<feColorMatrix in="SourceAlpha" type="matrix" values="0 0 0 0 0 0 0 0 0 0 0 0 0 0 0 0 0 0 127 0" result="hardAlpha"/>
<feOffset/>
<feGaussianBlur stdDeviation="2.5"/>
<feColorMatrix type="matrix" values="0 0 0 0 0.494118 0 0 0 0 0.466667 0 0 0 0 0.866667 0 0 0 1 0"/>
<feBlend mode="normal" in2="BackgroundImageFix" result="effect1_dropShadow_0_846"/>
<feBlend mode="normal" in="SourceGraphic" in2="effect1_dropShadow_0_846" result="shape"/>
</filter>
</defs>
</svg>
