<svg width="26" height="24" viewBox="0 0 26 24" fill="none" xmlns="http://www.w3.org/2000/svg">
<path d="M0.750035 7.99938L0.750029 7.99729C0.738874 4.011 3.981 0.762595 8.00173 0.75H17.9983C22.019 0.762595 25.2611 4.011 25.25 7.99729V7.99938L25.25 16.0006L25.25 16.0027C25.2611 19.989 22.0191 23.2373 17.9984 23.25H8.00158C3.98091 23.2373 0.738874 19.989 0.750032 16.0027V16.0006L0.750035 7.99938Z" stroke="white" stroke-width="1.5" stroke-linecap="round" stroke-linejoin="round"/>
<path d="M5.75 17.5385C5.75 17.9527 6.08579 18.2885 6.5 18.2885C6.91421 18.2885 7.25 17.9527 7.25 17.5385H5.75ZM7.25 10.1539C7.25 9.73964 6.91421 9.40386 6.5 9.40386C6.08579 9.40386 5.75 9.73964 5.75 10.1539H7.25ZM12.25 17.5385C12.25 17.9527 12.5858 18.2885 13 18.2885C13.4142 18.2885 13.75 17.9527 13.75 17.5385H12.25ZM13.75 6.46155C13.75 6.04733 13.4142 5.71155 13 5.71155C12.5858 5.71155 12.25 6.04733 12.25 6.46155H13.75ZM18.75 17.5385C18.75 17.9527 19.0858 18.2885 19.5 18.2885C19.9142 18.2885 20.25 17.9527 20.25 17.5385H18.75ZM20.25 10.1539C20.25 9.73964 19.9142 9.40386 19.5 9.40386C19.0858 9.40386 18.75 9.73964 18.75 10.1539H20.25ZM7.25 17.5385V10.1539H5.75V17.5385H7.25ZM13.75 17.5385V6.46155H12.25V17.5385H13.75ZM20.25 17.5385V10.1539H18.75V17.5385H20.25Z" fill="white"/>
</svg>
