<svg width="26" height="24" viewBox="0 0 26 24" fill="none" xmlns="http://www.w3.org/2000/svg">
<path d="M0.750035 7.99938L0.750029 7.99729C0.738874 4.011 3.981 0.762595 8.00173 0.75H17.9983C22.019 0.762595 25.2611 4.011 25.25 7.99729V7.99938L25.25 16.0006L25.25 16.0027C25.2611 19.989 22.0191 23.2373 17.9984 23.25H8.00158C3.98091 23.2373 0.738874 19.989 0.750032 16.0027V16.0006L0.750035 7.99938Z" stroke="#7678B5" stroke-width="1.5" stroke-linecap="round" stroke-linejoin="round"/>
<path d="M2 19L8 12.1429L11.5 13.8571L15.5 6.64835L18 8.71429L23 3" stroke="#7678B5" stroke-width="1.5" stroke-linecap="round" stroke-linejoin="round"/>
<path d="M5 22L10.7143 17.2857L14.0476 18.4643L17.8571 13.5082L20.2381 14.9286L25 11" stroke="#7678B5" stroke-width="1.5" stroke-linecap="round" stroke-linejoin="round"/>
</svg>
